<svg width="843" height="573" viewBox="0 0 843 573" fill="none" xmlns="http://www.w3.org/2000/svg">
<g clip-path="url(#clip0_124_2)">
<path d="M86.711 559.405C105.612 573.021 130.105 573.705 153.781 572.032C157.087 571.799 160.37 571.525 163.622 571.23C163.642 571.225 163.668 571.227 163.688 571.221C163.844 571.207 164.001 571.192 164.15 571.183C164.821 571.12 165.493 571.057 166.158 570.994L166.001 571.294L165.508 572.224C165.685 571.913 165.862 571.608 166.039 571.297C166.091 571.203 166.15 571.11 166.202 571.017C172.335 560.343 178.418 549.278 179.97 537.091C181.574 524.44 177.066 510.116 165.933 503.899C164.472 503.086 162.926 502.438 161.322 501.968C160.657 501.765 159.982 501.601 159.299 501.456C155.124 500.529 150.776 500.731 146.705 502.04C142.633 503.35 138.983 505.721 136.132 508.909C133.28 512.097 131.329 515.986 130.478 520.178C129.628 524.37 129.91 528.713 131.295 532.76C121.856 523.081 123.616 507.379 126.872 494.256C130.135 481.133 134.084 466.531 127.449 454.744C123.76 448.184 117.274 444.113 109.994 442.474C109.771 442.425 109.548 442.377 109.324 442.336C100.651 440.579 91.6345 442.159 84.0753 446.76C70.1565 455.531 63.0076 472.161 60.6874 488.452C56.9491 514.667 65.222 543.923 86.711 559.405Z" fill="#F2F2F2"/>
<path d="M92.8133 517.382C93.362 523.164 94.751 528.836 96.9365 534.217C98.9507 538.98 101.665 543.414 104.991 547.373C111.904 555.465 120.66 561.779 130.522 565.782C137.981 568.837 145.796 570.937 153.781 572.032C157.087 571.799 160.37 571.525 163.622 571.23C163.642 571.225 163.668 571.227 163.688 571.221C163.844 571.207 164.001 571.192 164.15 571.183C164.821 571.12 165.493 571.057 166.158 570.994L166.001 571.294L165.508 572.224C165.685 571.913 165.862 571.608 166.039 571.296C166.091 571.203 166.15 571.11 166.202 571.017C160.215 565.052 155.745 557.739 153.166 549.691C150.588 541.643 149.976 533.094 151.382 524.76C152.853 516.486 156.259 508.676 161.322 501.968C160.657 501.765 159.982 501.601 159.299 501.456C157.375 504.087 155.687 506.882 154.255 509.81C149.118 520.252 147.479 532.07 149.581 543.516C151.535 553.873 156.404 563.458 163.615 571.145C162.984 571.101 162.346 571.049 161.722 570.992C149.904 569.991 138.11 567.45 127.39 562.246C118.228 557.906 110.273 551.379 104.227 543.24C97.7348 534.287 94.874 523.517 94.3826 512.571C94.0044 500.779 95.2405 488.99 98.0564 477.532C100.787 465.849 104.937 454.544 110.414 443.869C110.537 443.627 110.561 443.347 110.483 443.088C110.405 442.828 110.23 442.608 109.994 442.474C109.798 442.341 109.557 442.292 109.324 442.336C109.21 442.366 109.105 442.421 109.015 442.498C108.926 442.575 108.855 442.67 108.807 442.778C108.132 444.097 107.469 445.417 106.831 446.751C101.518 457.865 97.6072 469.596 95.1872 481.675C92.8379 493.327 91.5839 505.516 92.8133 517.382Z" fill="white"/>
<path d="M807.57 182.126C808.133 182.125 808.691 182.02 809.215 181.815C810.062 181.49 810.791 180.914 811.303 180.164C811.816 179.415 812.089 178.527 812.085 177.619V130.586C812.086 128.994 812.72 127.468 813.845 126.342C814.971 125.216 816.497 124.583 818.089 124.581H827.721C831.7 124.577 835.515 122.994 838.329 120.18C841.143 117.366 842.726 113.551 842.73 109.572V15.0093C842.726 11.0299 841.143 7.21487 838.329 4.40105C835.515 1.58723 831.7 0.00445985 827.721 0H487.995C484.016 0.00446514 480.201 1.58723 477.387 4.40105C474.573 7.21487 472.991 11.0299 472.986 15.0093V109.572C472.991 113.551 474.573 117.366 477.387 120.18C480.201 122.994 484.016 124.577 487.995 124.581H750.215C751.047 124.582 751.87 124.756 752.632 125.091C753.394 125.426 754.078 125.915 754.641 126.528L804.263 180.662C804.682 181.122 805.193 181.49 805.762 181.743C806.332 181.995 806.947 182.125 807.57 182.126V182.126ZM827.721 2C831.17 2.00389 834.476 3.37577 836.915 5.81464C839.354 8.25351 840.726 11.5602 840.73 15.0093V109.572C840.726 113.021 839.354 116.328 836.915 118.766C834.476 121.205 831.17 122.577 827.721 122.581H818.089C815.967 122.583 813.932 123.428 812.432 124.928C810.931 126.429 810.087 128.464 810.085 130.586V177.619C810.085 178.123 809.932 178.616 809.648 179.032C809.363 179.448 808.959 179.768 808.489 179.951C808.02 180.134 807.505 180.171 807.014 180.056C806.523 179.942 806.078 179.682 805.738 179.31L756.116 125.177C755.365 124.36 754.453 123.707 753.437 123.26C752.422 122.814 751.325 122.582 750.215 122.581H487.995C484.546 122.577 481.24 121.205 478.801 118.766C476.362 116.328 474.99 113.021 474.986 109.572V15.0093C474.99 11.5602 476.362 8.25351 478.801 5.81464C481.24 3.37577 484.546 2.0039 487.995 2H827.721Z" fill="#CCCCCC"/>
<path d="M805.914 42.5901C798.66 42.5901 792.78 36.7099 792.78 29.4564C792.78 22.2028 798.66 16.3227 805.914 16.3227C813.167 16.3227 819.048 22.2028 819.048 29.4564C819.048 36.7099 813.167 42.5901 805.914 42.5901Z" fill="#CCCCCC"/>
<path d="M503.318 102.13H812.398C813.319 102.131 814.23 101.95 815.081 101.599C815.932 101.247 816.705 100.731 817.356 100.081C818.008 99.4304 818.524 98.6578 818.877 97.8074C819.23 96.957 819.411 96.0455 819.411 95.1249C819.411 94.2043 819.23 93.2928 818.877 92.4424C818.524 91.592 818.008 90.8195 817.356 90.1689C816.705 89.5184 815.932 89.0026 815.081 88.6511C814.23 88.2995 813.319 88.1192 812.398 88.1203H503.318C502.397 88.1192 501.486 88.2995 500.635 88.6511C499.784 89.0026 499.011 89.5184 498.36 90.1689C497.708 90.8195 497.192 91.592 496.839 92.4424C496.487 93.2928 496.305 94.2043 496.305 95.1249C496.305 96.0455 496.487 96.957 496.839 97.8074C497.192 98.6578 497.708 99.4304 498.36 100.081C499.011 100.731 499.784 101.247 500.635 101.599C501.486 101.95 502.397 102.131 503.318 102.13V102.13Z" fill="#CCCCCC"/>
<path d="M604.01 72.3598H812.398C813.319 72.3609 814.23 72.1805 815.081 71.829C815.932 71.4775 816.705 70.9617 817.356 70.3112C818.008 69.6606 818.524 68.8881 818.877 68.0377C819.23 67.1873 819.411 66.2757 819.411 65.3552C819.411 64.4346 819.23 63.5231 818.877 62.6727C818.524 61.8223 818.008 61.0497 817.356 60.3992C816.705 59.7486 815.932 59.2328 815.081 58.8813C814.23 58.5298 813.319 58.3494 812.398 58.3505H604.01C603.089 58.3494 602.177 58.5298 601.327 58.8813C600.476 59.2328 599.703 59.7486 599.051 60.3992C598.4 61.0497 597.883 61.8223 597.531 62.6727C597.178 63.5231 596.997 64.4346 596.997 65.3552C596.997 66.2757 597.178 67.1873 597.531 68.0377C597.883 68.8881 598.4 69.6606 599.051 70.3112C599.703 70.9617 600.476 71.4775 601.327 71.829C602.177 72.1805 603.089 72.3609 604.01 72.3598V72.3598Z" fill="#CCCCCC"/>
<path d="M807.57 515.722C808.133 515.722 808.691 515.616 809.215 515.412C810.062 515.086 810.791 514.51 811.303 513.761C811.816 513.011 812.089 512.123 812.085 511.215V464.182C812.086 462.59 812.72 461.064 813.845 459.938C814.971 458.812 816.497 458.179 818.089 458.177H827.721C831.7 458.173 835.515 456.59 838.329 453.776C841.143 450.962 842.726 447.147 842.73 443.168V348.606C842.726 344.626 841.143 340.811 838.329 337.997C835.515 335.183 831.7 333.601 827.721 333.596H487.995C484.016 333.601 480.201 335.183 477.387 337.997C474.573 340.811 472.991 344.626 472.986 348.606V443.168C472.991 447.147 474.573 450.962 477.387 453.776C480.201 456.59 484.016 458.173 487.995 458.177H750.215C751.047 458.178 751.87 458.352 752.632 458.687C753.394 459.022 754.078 459.512 754.641 460.125L804.263 514.258C804.682 514.718 805.193 515.087 805.762 515.339C806.332 515.591 806.947 515.722 807.57 515.722V515.722ZM827.721 335.596C831.17 335.6 834.476 336.972 836.915 339.411C839.354 341.85 840.726 345.156 840.73 348.605V443.168C840.726 446.617 839.354 449.924 836.915 452.363C834.476 454.802 831.17 456.173 827.721 456.177H818.089C815.967 456.18 813.932 457.024 812.432 458.525C810.931 460.025 810.087 462.06 810.085 464.182V511.215C810.085 511.72 809.932 512.212 809.648 512.628C809.363 513.044 808.959 513.365 808.489 513.547C808.02 513.73 807.505 513.767 807.014 513.652C806.523 513.538 806.078 513.278 805.738 512.906L756.116 458.773C755.365 457.956 754.453 457.303 753.437 456.857C752.422 456.41 751.325 456.179 750.215 456.177H487.995C484.546 456.173 481.24 454.802 478.801 452.363C476.362 449.924 474.99 446.617 474.986 443.168V348.606C474.99 345.156 476.362 341.85 478.801 339.411C481.24 336.972 484.546 335.6 487.995 335.596L827.721 335.596Z" fill="#CCCCCC"/>
<path d="M305.887 342.357C306.51 342.357 307.125 342.226 307.695 341.974C308.264 341.722 308.775 341.354 309.194 340.893L358.816 286.76C359.379 286.147 360.063 285.657 360.825 285.322C361.587 284.987 362.41 284.813 363.242 284.812H625.462C629.441 284.808 633.256 283.225 636.07 280.411C638.884 277.598 640.466 273.783 640.471 269.803V175.241C640.466 171.261 638.884 167.446 636.07 164.633C633.256 161.819 629.441 160.236 625.462 160.231H285.736C281.757 160.236 277.942 161.819 275.128 164.632C272.314 167.446 270.732 171.261 270.727 175.241V269.803C270.732 273.783 272.314 277.598 275.128 280.411C277.942 283.225 281.757 284.808 285.736 284.812H295.368C296.96 284.814 298.486 285.448 299.612 286.573C300.737 287.699 301.371 289.225 301.372 290.817V337.851C301.368 338.759 301.641 339.646 302.154 340.396C302.666 341.145 303.395 341.721 304.242 342.046C304.767 342.251 305.324 342.357 305.887 342.357V342.357ZM625.462 162.231C628.911 162.235 632.217 163.607 634.656 166.046C637.095 168.485 638.467 171.792 638.471 175.241V269.803C638.467 273.252 637.095 276.559 634.656 278.998C632.217 281.437 628.911 282.809 625.462 282.812H363.242C362.132 282.814 361.035 283.045 360.02 283.492C359.004 283.939 358.092 284.591 357.342 285.408L307.719 339.541C307.379 339.913 306.934 340.173 306.443 340.288C305.952 340.402 305.438 340.365 304.968 340.183C304.498 340 304.094 339.679 303.809 339.263C303.525 338.847 303.372 338.355 303.372 337.851V290.817C303.37 288.695 302.526 286.66 301.025 285.16C299.525 283.659 297.49 282.815 295.368 282.812H285.736C282.287 282.809 278.981 281.437 276.542 278.998C274.103 276.559 272.731 273.252 272.727 269.803V175.241C272.731 171.792 274.103 168.485 276.542 166.046C278.981 163.607 282.287 162.235 285.736 162.231L625.462 162.231Z" fill="#3F3D56"/>
<path d="M805.914 376.186C798.66 376.186 792.78 370.306 792.78 363.053C792.78 355.799 798.66 349.919 805.914 349.919C813.167 349.919 819.048 355.799 819.048 363.053C819.048 370.306 813.167 376.186 805.914 376.186Z" fill="#CCCCCC"/>
<path d="M503.318 435.726H812.398C813.319 435.727 814.23 435.546 815.081 435.195C815.932 434.843 816.705 434.328 817.356 433.677C818.008 433.027 818.524 432.254 818.877 431.404C819.23 430.553 819.411 429.642 819.411 428.721C819.411 427.801 819.23 426.889 818.877 426.039C818.524 425.188 818.008 424.416 817.356 423.765C816.705 423.115 815.932 422.599 815.081 422.247C814.23 421.896 813.319 421.715 812.398 421.716H503.318C501.46 421.716 499.679 422.454 498.365 423.768C497.051 425.082 496.313 426.863 496.313 428.721C496.313 430.579 497.051 432.361 498.365 433.674C499.679 434.988 501.46 435.726 503.318 435.726Z" fill="#CCCCCC"/>
<path d="M604.01 405.956H812.398C813.319 405.957 814.23 405.777 815.081 405.425C815.932 405.074 816.705 404.558 817.356 403.907C818.008 403.257 818.524 402.484 818.877 401.634C819.23 400.783 819.411 399.872 819.411 398.951C819.411 398.031 819.23 397.119 818.877 396.269C818.524 395.418 818.008 394.646 817.356 393.995C816.705 393.345 815.932 392.829 815.081 392.477C814.23 392.126 813.319 391.946 812.398 391.947H604.01C603.089 391.946 602.177 392.126 601.327 392.477C600.476 392.829 599.703 393.345 599.051 393.995C598.4 394.646 597.883 395.418 597.531 396.269C597.178 397.119 596.997 398.031 596.997 398.951C596.997 399.872 597.178 400.783 597.531 401.634C597.883 402.484 598.4 403.257 599.051 403.907C599.703 404.558 600.476 405.074 601.327 405.425C602.177 405.777 603.089 405.957 604.01 405.956Z" fill="#CCCCCC"/>
<path d="M603.655 201.946C596.401 201.946 590.521 196.066 590.521 188.812C590.521 181.558 596.401 175.678 603.655 175.678C610.908 175.678 616.789 181.558 616.789 188.812C616.789 196.066 610.908 201.946 603.655 201.946Z" fill="#3F3D56"/>
<path d="M301.059 261.485H610.139C611.997 261.485 613.778 260.747 615.092 259.434C616.406 258.12 617.144 256.338 617.144 254.481C617.144 252.623 616.406 250.841 615.092 249.528C613.778 248.214 611.997 247.476 610.139 247.476H301.059C299.201 247.476 297.42 248.214 296.106 249.528C294.792 250.841 294.054 252.623 294.054 254.481C294.054 256.338 294.792 258.12 296.106 259.434C297.42 260.747 299.201 261.485 301.059 261.485V261.485Z" fill="#ff6348"/>
<path d="M401.751 231.715H610.139C611.059 231.717 611.971 231.536 612.822 231.185C613.673 230.833 614.446 230.317 615.097 229.667C615.749 229.016 616.265 228.244 616.618 227.393C616.97 226.543 617.152 225.631 617.152 224.711C617.152 223.79 616.97 222.879 616.618 222.028C616.265 221.178 615.749 220.405 615.097 219.755C614.446 219.104 613.673 218.588 612.822 218.237C611.971 217.885 611.059 217.705 610.139 217.706H401.751C400.83 217.705 399.918 217.885 399.068 218.237C398.217 218.588 397.444 219.104 396.792 219.755C396.141 220.405 395.624 221.178 395.272 222.028C394.919 222.879 394.738 223.79 394.738 224.711C394.738 225.631 394.919 226.543 395.272 227.393C395.624 228.244 396.141 229.016 396.792 229.667C397.444 230.317 398.217 230.833 399.068 231.185C399.918 231.536 400.83 231.717 401.751 231.715Z" fill="#ff6348"/>
<path d="M301.194 360.359C300.893 358.92 300.281 357.564 299.401 356.387C298.52 355.21 297.392 354.24 296.096 353.546C294.8 352.853 293.367 352.451 291.899 352.371C290.431 352.291 288.964 352.533 287.6 353.081L264.14 326.125L259.157 344.014L282.199 366.869C283.272 369.1 285.125 370.859 287.409 371.814C289.692 372.769 292.247 372.853 294.588 372.051C296.929 371.248 298.895 369.615 300.112 367.46C301.33 365.305 301.715 362.778 301.194 360.359V360.359Z" fill="#FFB8B8"/>
<path d="M172.44 233.862C158.875 233.862 147.879 222.865 147.879 209.301C147.879 195.736 158.875 184.74 172.44 184.74C186.005 184.74 197.001 195.736 197.001 209.301C197.001 222.865 186.005 233.862 172.44 233.862Z" fill="#FFB8B8"/>
<path d="M201.294 547.373L213.553 547.372L219.386 500.084L201.291 500.085L201.294 547.373Z" fill="#FFB8B8"/>
<path d="M198.167 559.257L237.698 559.256V558.756C237.698 556.735 237.3 554.734 236.526 552.867C235.753 551.001 234.62 549.304 233.191 547.876C231.762 546.447 230.066 545.314 228.199 544.54C226.332 543.767 224.332 543.369 222.311 543.369H222.31L198.166 543.37L198.167 559.257Z" fill="#2F2E41"/>
<path d="M164.294 560.373L176.553 560.372L178.251 514.214L164.291 513.085L164.294 560.373Z" fill="#FFB8B8"/>
<path d="M161.167 572.257L200.698 572.256V571.756C200.698 569.735 200.3 567.734 199.526 565.867C198.753 564.001 197.62 562.304 196.191 560.876C194.762 559.447 193.066 558.314 191.199 557.54C189.332 556.767 187.332 556.369 185.311 556.369H185.31L161.166 556.37L161.167 572.257Z" fill="#2F2E41"/>
<path d="M167.781 551.743L177.327 550.619C178.41 550.489 179.409 549.972 180.14 549.162C180.87 548.352 181.283 547.305 181.301 546.215L183.09 421.876C183.096 421.524 183.224 421.186 183.454 420.919C183.684 420.652 184 420.475 184.347 420.418C184.694 420.361 185.05 420.428 185.353 420.607C185.656 420.786 185.887 421.066 186.004 421.398L199.25 458.797L198.302 528.899C198.286 530.056 198.717 531.175 199.504 532.022C200.292 532.87 201.376 533.382 202.531 533.451L214.995 533.981C216.135 534.045 217.257 533.677 218.137 532.949C219.017 532.221 219.589 531.188 219.739 530.056L226.249 450.755L226.253 450.705L216.376 367.886L142.193 373.253L162.786 547.802C162.916 548.896 163.443 549.903 164.265 550.635C165.088 551.367 166.151 551.773 167.252 551.775C167.429 551.775 167.605 551.764 167.781 551.743Z" fill="#2F2E41"/>
<path d="M216.059 375.228C216.725 374.872 217.29 374.354 217.702 373.721C218.114 373.089 218.359 372.362 218.414 371.61C218.414 371.61 211.743 330.125 209.299 329.347L214.647 284.984C215.288 279.573 214.841 274.088 213.333 268.853C211.826 263.617 209.287 258.735 205.867 254.493C202.573 250.379 198.48 246.974 193.834 244.485C189.188 241.996 184.085 240.474 178.835 240.011C178.087 239.944 177.344 239.892 176.604 239.857C170.275 239.518 163.958 240.712 158.189 243.338C152.421 245.963 147.371 249.943 143.471 254.939C139.424 259.977 136.655 265.918 135.398 272.257C134.141 278.595 134.434 285.144 136.251 291.345L139.251 301.784V374.74C139.254 375.453 139.424 376.154 139.747 376.788C140.071 377.423 140.538 377.973 141.113 378.394C150.454 385.249 161.01 387.673 171.268 387.673C190.679 387.673 209.025 378.993 216.059 375.228Z" fill="#ff6348"/>
<path d="M273.649 361.877L286.551 352.229C287.057 351.851 287.478 351.37 287.786 350.818C288.094 350.266 288.282 349.656 288.339 349.026C288.395 348.397 288.318 347.762 288.113 347.165C287.908 346.567 287.579 346.019 287.148 345.557L210.285 263.082C207.818 260.458 204.491 258.805 200.909 258.425C197.327 258.044 193.728 258.96 190.764 261.007L190.763 261.007C188.958 262.266 187.451 263.908 186.352 265.815C185.253 267.723 184.588 269.849 184.404 272.043C184.22 274.237 184.522 276.444 185.288 278.508C186.055 280.572 187.267 282.441 188.838 283.983L267.802 361.485C268.496 362.173 269.396 362.614 270.364 362.742C271.332 362.87 272.316 362.677 273.164 362.194C273.332 362.098 273.494 361.993 273.649 361.877V361.877Z" fill="#ff6348"/>
<path d="M174.9 350.957C174.336 349.6 173.481 348.382 172.396 347.391C171.311 346.399 170.021 345.658 168.618 345.218C167.215 344.779 165.733 344.653 164.276 344.848C162.819 345.044 161.422 345.557 160.185 346.35L132.099 324.257L130.549 342.762L157.458 360.905C158.929 362.896 161.079 364.277 163.501 364.788C165.922 365.3 168.448 364.905 170.598 363.678C172.748 362.452 174.373 360.48 175.166 358.135C175.959 355.791 175.864 353.237 174.9 350.957V350.957Z" fill="#FFB8B8"/>
<path d="M149.761 359.582C150.504 359.351 151.175 358.93 151.705 358.36C152.235 357.79 152.607 357.091 152.784 356.333L155.621 344.417C155.829 343.571 155.784 342.683 155.49 341.863C155.197 341.042 154.668 340.327 153.971 339.805L134.882 319.16L162.961 275.865C165.086 273.248 166.284 270 166.367 266.63C166.451 263.26 165.415 259.958 163.422 257.238C161.834 255.072 159.701 253.364 157.239 252.287C154.778 251.211 152.076 250.804 149.407 251.108C146.737 251.412 144.196 252.416 142.039 254.018C139.883 255.621 138.189 257.764 137.128 260.233L111.024 311.043C108.429 316.091 107.781 321.918 109.205 327.412C110.629 332.907 114.025 337.686 118.745 340.838L145.421 358.658C146.238 359.389 147.296 359.794 148.392 359.795C148.856 359.794 149.318 359.723 149.761 359.582V359.582Z" fill="#ff6348"/>
<path d="M154.24 231.258C154.819 231.605 155.47 231.815 156.143 231.87C156.816 231.925 157.492 231.825 158.12 231.577C158.748 231.329 159.31 230.94 159.763 230.44C160.216 229.94 160.548 229.342 160.734 228.693L160.749 228.632C161.249 226.588 160.854 224.449 160.725 222.349C160.596 220.249 160.814 217.944 162.252 216.409C164.932 213.546 169.666 215.096 173.523 214.389C175.783 213.898 177.787 212.599 179.158 210.737C180.53 208.875 181.176 206.577 180.976 204.272C180.923 203.836 180.84 203.399 180.745 202.961C180.51 201.854 180.535 200.707 180.818 199.611C181.1 198.515 181.633 197.499 182.375 196.644C183.116 195.788 184.045 195.116 185.09 194.68C186.135 194.244 187.267 194.057 188.396 194.132C192.29 194.375 196.487 195.578 199.725 192.71C200.912 191.579 201.74 190.123 202.105 188.524C202.471 186.925 202.357 185.253 201.778 183.719C199.967 178.398 194.781 175.59 189.643 174.034C183.289 172.161 176.597 171.727 170.053 172.765C163.51 173.803 157.281 176.286 151.817 180.033C148.555 182.307 145.504 185.169 144.098 188.889C142.693 192.609 143.336 197.316 146.447 199.793C144.012 202.344 142.29 205.49 141.453 208.916C140.617 212.342 140.696 215.928 141.682 219.314C143.198 224.294 150.536 229.1 154.24 231.258Z" fill="#2F2E41"/>
<path d="M0 572C0.000728368 572.265 0.106322 572.519 0.293701 572.706C0.48108 572.894 0.735007 572.999 1 573H382C382.265 573 382.52 572.895 382.707 572.707C382.895 572.52 383 572.265 383 572C383 571.735 382.895 571.48 382.707 571.293C382.52 571.105 382.265 571 382 571H1C0.735007 571.001 0.48108 571.106 0.293701 571.294C0.106322 571.481 0.000728368 571.735 0 572V572Z" fill="#3F3D56"/>
</g>
<defs>
<clipPath id="clip0_124_2">
<rect width="842.73" height="573" fill="white" transform="matrix(-1 0 0 1 842.73 0)"/>
</clipPath>
</defs>
</svg>
